# xmcd
#
# Track frame offsets:
#	150
#	13502
#	27425
#	45317
#	56060
#	68942
#	88207
#	97445
#	107912
#	117925
#	127130
#	138107
#	149255
#	160960
#	172755
#	186035
#	198177
#	211937
#	224190
#	236812
#
# Disc length: 3325 seconds
#
# Revision: 1
# Processed by: cddbd v1.5.2PL0 Copyright (c) Steve Scherf et al.
# Submitted via: EasyCDDAExtractor 12.0.4.1
#
DISCID=300cfb14
DTITLE=Various Artist - I Love Country-Hits Of The 60's
DYEAR=1997
DGENRE=Country
TTITLE0=Patsy Cline - I Fall To Pieces
TTITLE1=Glen Campbell - Wichita Lineman
TTITLE2=Bobby Goldsboro - Honey
TTITLE3=Buck Owens - Act Naturally
TTITLE4=Tennessee Ernie Ford - Hicktown
TTITLE5=Bobbie Gentry - Ode To Billie Joe
TTITLE6=Buck Owens - Let The World Keep On A Turnin'
TTITLE7=Ferlin Husky - Wings Of A Dove
TTITLE8=Sonny James - You're The Only World I Know
TTITLE9=Del Reeves - Good Time Charlie's
TTITLE10=George Jones - Tender Years
TTITLE11=Roger Miller - King Of The Road
TTITLE12=Jack Green - There Goes My Everything
TTITLE13=Kitty Wells - Heartbreak U.S.A.
TTITLE14=Merle Haggard - I'm A Lonesome Fugitive
TTITLE15=Bill Anderson - My Life(Throw It Away If I Want To)
TTITLE16=Jimmy Dean - Big Bad John
TTITLE17=David Houston - Already It's Heaven
TTITLE18=Stonewall Jackson - B.J. The D.J.
TTITLE19=Tammy Wynette - Take Me To Your World
EXTD=YEAR: 1997 ID3G: 2
EXTT0=
EXTT1=
EXTT2=
EXTT3=
EXTT4=
EXTT5=
EXTT6=
EXTT7=
EXTT8=
EXTT9=
EXTT10=
EXTT11=
EXTT12=
EXTT13=
EXTT14=
EXTT15=
EXTT16=
EXTT17=
EXTT18=
EXTT19=
PLAYORDER=
